<?xml version="1.0" encoding="UTF-8" standalone="yes"?><svg xmlns="http://www.w3.org/2000/svg" xmlns:xlink="http://www.w3.org/1999/xlink" height="502px" style="width:1069px;height:502px;" version="1.1" viewBox="0 0 1069 502" width="1069px"><defs><filter height="300%" id="f1" width="300%" x="-1" y="-1"><feGaussianBlur result="blurOut" stdDeviation="2.0"/><feColorMatrix in="blurOut" result="blurOut2" type="matrix" values="0 0 0 0 0 0 0 0 0 0 0 0 0 0 0 0 0 0 .4 0"/><feOffset dx="4.0" dy="4.0" in="blurOut2" result="blurOut3"/><feBlend in="SourceGraphic" in2="blurOut3" mode="normal"/></filter></defs><g><line style="stroke: #A80036; stroke-width: 1.0; stroke-dasharray: 5.0,5.0;" x1="45" x2="45" y1="102.5938" y2="401.9219"/><line style="stroke: #A80036; stroke-width: 1.0; stroke-dasharray: 5.0,5.0;" x1="113" x2="113" y1="102.5938" y2="401.9219"/><line style="stroke: #A80036; stroke-width: 1.0; stroke-dasharray: 5.0,5.0;" x1="164" x2="164" y1="102.5938" y2="401.9219"/><line style="stroke: #A80036; stroke-width: 1.0; stroke-dasharray: 5.0,5.0;" x1="253" x2="253" y1="102.5938" y2="401.9219"/><line style="stroke: #A80036; stroke-width: 1.0; stroke-dasharray: 5.0,5.0;" x1="370" x2="370" y1="102.5938" y2="401.9219"/><line style="stroke: #A80036; stroke-width: 1.0; stroke-dasharray: 5.0,5.0;" x1="452" x2="452" y1="102.5938" y2="401.9219"/><line style="stroke: #A80036; stroke-width: 1.0; stroke-dasharray: 5.0,5.0;" x1="531" x2="531" y1="102.5938" y2="401.9219"/><line style="stroke: #A80036; stroke-width: 1.0; stroke-dasharray: 5.0,5.0;" x1="629" x2="629" y1="102.5938" y2="401.9219"/><line style="stroke: #A80036; stroke-width: 1.0; stroke-dasharray: 5.0,5.0;" x1="726" x2="726" y1="102.5938" y2="401.9219"/><line style="stroke: #A80036; stroke-width: 1.0; stroke-dasharray: 5.0,5.0;" x1="833" x2="833" y1="102.5938" y2="401.9219"/><line style="stroke: #A80036; stroke-width: 1.0; stroke-dasharray: 5.0,5.0;" x1="951" x2="951" y1="102.5938" y2="401.9219"/><line style="stroke: #A80036; stroke-width: 1.0; stroke-dasharray: 5.0,5.0;" x1="1040" x2="1040" y1="102.5938" y2="401.9219"/><text fill="#000000" font-family="sans-serif" font-size="14" lengthAdjust="spacingAndGlyphs" textLength="69" x="8" y="82.9951">Technical</text><text fill="#000000" font-family="sans-serif" font-size="14" lengthAdjust="spacingAndGlyphs" textLength="42" x="21.5" y="99.292">Editor</text><ellipse cx="45.5" cy="13" fill="#FEFECE" filter="url(#f1)" rx="8" ry="8" style="stroke: #A80036; stroke-width: 2.0;"/><path d="M45.5,21 L45.5,48 M32.5,29 L58.5,29 M45.5,48 L32.5,63 M45.5,48 L58.5,63 " fill="#FEFECE" filter="url(#f1)" style="stroke: #A80036; stroke-width: 2.0;"/><text fill="#000000" font-family="sans-serif" font-size="14" lengthAdjust="spacingAndGlyphs" textLength="69" x="8" y="413.917">Technical</text><text fill="#000000" font-family="sans-serif" font-size="14" lengthAdjust="spacingAndGlyphs" textLength="42" x="21.5" y="430.2139">Editor</text><ellipse cx="45.5" cy="443.5156" fill="#FEFECE" filter="url(#f1)" rx="8" ry="8" style="stroke: #A80036; stroke-width: 2.0;"/><path d="M45.5,451.5156 L45.5,478.5156 M32.5,459.5156 L58.5,459.5156 M45.5,478.5156 L32.5,493.5156 M45.5,478.5156 L58.5,493.5156 " fill="#FEFECE" filter="url(#f1)" style="stroke: #A80036; stroke-width: 2.0;"/><text fill="#000000" font-family="sans-serif" font-size="14" lengthAdjust="spacingAndGlyphs" textLength="35" x="93" y="99.292">Foo3</text><ellipse cx="113.5" cy="70.2969" fill="#FEFECE" filter="url(#f1)" rx="12" ry="12" style="stroke: #A80036; stroke-width: 2.0;"/><polygon fill="#A80036" points="109.5,58.2969,115.5,53.2969,113.5,58.2969,115.5,63.2969,109.5,58.2969" style="stroke: #A80036; stroke-width: 1.0;"/><text fill="#000000" font-family="sans-serif" font-size="14" lengthAdjust="spacingAndGlyphs" textLength="35" x="93" y="413.917">Foo3</text><ellipse cx="113.5" cy="433.2188" fill="#FEFECE" filter="url(#f1)" rx="12" ry="12" style="stroke: #A80036; stroke-width: 2.0;"/><polygon fill="#A80036" points="109.5,421.2188,115.5,416.2188,113.5,421.2188,115.5,426.2188,109.5,421.2188" style="stroke: #A80036; stroke-width: 1.0;"/><text fill="#000000" font-family="sans-serif" font-size="14" lengthAdjust="spacingAndGlyphs" textLength="35" x="144" y="99.292">Foo4</text><ellipse cx="164.5" cy="70.2969" fill="#FEFECE" filter="url(#f1)" rx="12" ry="12" style="stroke: #A80036; stroke-width: 2.0;"/><line style="stroke: #A80036; stroke-width: 2.0;" x1="152.5" x2="176.5" y1="84.2969" y2="84.2969"/><text fill="#000000" font-family="sans-serif" font-size="14" lengthAdjust="spacingAndGlyphs" textLength="35" x="144" y="413.917">Foo4</text><ellipse cx="164.5" cy="433.2188" fill="#FEFECE" filter="url(#f1)" rx="12" ry="12" style="stroke: #A80036; stroke-width: 2.0;"/><line style="stroke: #A80036; stroke-width: 2.0;" x1="152.5" x2="176.5" y1="447.2188" y2="447.2188"/><text fill="#000000" font-family="sans-serif" font-size="14" lengthAdjust="spacingAndGlyphs" textLength="111" x="195" y="99.292">OpenStreetMap</text><path d="M235.5,54.2969 C235.5,44.2969 253.5,44.2969 253.5,44.2969 C253.5,44.2969 271.5,44.2969 271.5,54.2969 L271.5,76.2969 C271.5,86.2969 253.5,86.2969 253.5,86.2969 C253.5,86.2969 235.5,86.2969 235.5,76.2969 L235.5,54.2969 " fill="#FEFECE" filter="url(#f1)" style="stroke: #A80036; stroke-width: 1.5;"/><path d="M235.5,54.2969 C235.5,64.2969 253.5,64.2969 253.5,64.2969 C253.5,64.2969 271.5,64.2969 271.5,54.2969 " fill="none" style="stroke: #A80036; stroke-width: 1.5;"/><text fill="#000000" font-family="sans-serif" font-size="14" lengthAdjust="spacingAndGlyphs" textLength="111" x="195" y="413.917">OpenStreetMap</text><path d="M235.5,427.2188 C235.5,417.2188 253.5,417.2188 253.5,417.2188 C253.5,417.2188 271.5,417.2188 271.5,427.2188 L271.5,449.2188 C271.5,459.2188 253.5,459.2188 253.5,459.2188 C253.5,459.2188 235.5,459.2188 235.5,449.2188 L235.5,427.2188 " fill="#FEFECE" filter="url(#f1)" style="stroke: #A80036; stroke-width: 1.5;"/><path d="M235.5,427.2188 C235.5,437.2188 253.5,437.2188 253.5,437.2188 C253.5,437.2188 271.5,437.2188 271.5,427.2188 " fill="none" style="stroke: #A80036; stroke-width: 1.5;"/><text fill="#000000" font-family="sans-serif" font-size="14" lengthAdjust="spacingAndGlyphs" textLength="90" x="322" y="82.9951">Nederlandse</text><text fill="#000000" font-family="sans-serif" font-size="14" lengthAdjust="spacingAndGlyphs" textLength="82" x="326" y="99.292">Spellingwet</text><path d="M352,38 C352,28 370,28 370,28 C370,28 388,28 388,38 L388,60 C388,70 370,70 370,70 C370,70 352,70 352,60 L352,38 " fill="#FEFECE" filter="url(#f1)" style="stroke: #A80036; stroke-width: 1.5;"/><path d="M352,38 C352,48 370,48 370,48 C370,48 388,48 388,38 " fill="none" style="stroke: #A80036; stroke-width: 1.5;"/><text fill="#000000" font-family="sans-serif" font-size="14" lengthAdjust="spacingAndGlyphs" textLength="90" x="322" y="413.917">Nederlandse</text><text fill="#000000" font-family="sans-serif" font-size="14" lengthAdjust="spacingAndGlyphs" textLength="82" x="326" y="430.2139">Spellingwet</text><path d="M352,443.5156 C352,433.5156 370,433.5156 370,433.5156 C370,433.5156 388,433.5156 388,443.5156 L388,465.5156 C388,475.5156 370,475.5156 370,475.5156 C370,475.5156 352,475.5156 352,465.5156 L352,443.5156 " fill="#FEFECE" filter="url(#f1)" style="stroke: #A80036; stroke-width: 1.5;"/><path d="M352,443.5156 C352,453.5156 370,453.5156 370,453.5156 C370,453.5156 388,453.5156 388,443.5156 " fill="none" style="stroke: #A80036; stroke-width: 1.5;"/><rect fill="#FEFECE" filter="url(#f1)" height="30.2969" style="stroke: #A80036; stroke-width: 1.5;" width="44" x="428" y="67.2969"/><text fill="#000000" font-family="sans-serif" font-size="14" lengthAdjust="spacingAndGlyphs" textLength="30" x="435" y="87.292">XML</text><rect fill="#FEFECE" filter="url(#f1)" height="30.2969" style="stroke: #A80036; stroke-width: 1.5;" width="44" x="428" y="400.9219"/><text fill="#000000" font-family="sans-serif" font-size="14" lengthAdjust="spacingAndGlyphs" textLength="30" x="435" y="420.917">XML</text><text fill="#000000" font-family="sans-serif" font-size="14" lengthAdjust="spacingAndGlyphs" textLength="84" x="486" y="82.9951">Open Dutch</text><text fill="#000000" font-family="sans-serif" font-size="14" lengthAdjust="spacingAndGlyphs" textLength="62" x="497" y="99.292">WordNet</text><path d="M513,38 C513,28 531,28 531,28 C531,28 549,28 549,38 L549,60 C549,70 531,70 531,70 C531,70 513,70 513,60 L513,38 " fill="#FEFECE" filter="url(#f1)" style="stroke: #A80036; stroke-width: 1.5;"/><path d="M513,38 C513,48 531,48 531,48 C531,48 549,48 549,38 " fill="none" style="stroke: #A80036; stroke-width: 1.5;"/><text fill="#000000" font-family="sans-serif" font-size="14" lengthAdjust="spacingAndGlyphs" textLength="84" x="486" y="413.917">Open Dutch</text><text fill="#000000" font-family="sans-serif" font-size="14" lengthAdjust="spacingAndGlyphs" textLength="62" x="497" y="430.2139">WordNet</text><path d="M513,443.5156 C513,433.5156 531,433.5156 531,433.5156 C531,433.5156 549,433.5156 549,443.5156 L549,465.5156 C549,475.5156 531,475.5156 531,475.5156 C531,475.5156 513,475.5156 513,465.5156 L513,443.5156 " fill="#FEFECE" filter="url(#f1)" style="stroke: #A80036; stroke-width: 1.5;"/><path d="M513,443.5156 C513,453.5156 531,453.5156 531,453.5156 C531,453.5156 549,453.5156 549,443.5156 " fill="none" style="stroke: #A80036; stroke-width: 1.5;"/><text fill="#000000" font-family="sans-serif" font-size="14" lengthAdjust="spacingAndGlyphs" textLength="81" x="586" y="82.9951">Nederlanse</text><text fill="#000000" font-family="sans-serif" font-size="14" lengthAdjust="spacingAndGlyphs" textLength="76" x="588.5" y="99.292">Wiktionary</text><path d="M611.5,38 C611.5,28 629.5,28 629.5,28 C629.5,28 647.5,28 647.5,38 L647.5,60 C647.5,70 629.5,70 629.5,70 C629.5,70 611.5,70 611.5,60 L611.5,38 " fill="#FEFECE" filter="url(#f1)" style="stroke: #A80036; stroke-width: 1.5;"/><path d="M611.5,38 C611.5,48 629.5,48 629.5,48 C629.5,48 647.5,48 647.5,38 " fill="none" style="stroke: #A80036; stroke-width: 1.5;"/><text fill="#000000" font-family="sans-serif" font-size="14" lengthAdjust="spacingAndGlyphs" textLength="81" x="586" y="413.917">Nederlanse</text><text fill="#000000" font-family="sans-serif" font-size="14" lengthAdjust="spacingAndGlyphs" textLength="76" x="588.5" y="430.2139">Wiktionary</text><path d="M611.5,443.5156 C611.5,433.5156 629.5,433.5156 629.5,433.5156 C629.5,433.5156 647.5,433.5156 647.5,443.5156 L647.5,465.5156 C647.5,475.5156 629.5,475.5156 629.5,475.5156 C629.5,475.5156 611.5,475.5156 611.5,465.5156 L611.5,443.5156 " fill="#FEFECE" filter="url(#f1)" style="stroke: #A80036; stroke-width: 1.5;"/><path d="M611.5,443.5156 C611.5,453.5156 629.5,453.5156 629.5,453.5156 C629.5,453.5156 647.5,453.5156 647.5,443.5156 " fill="none" style="stroke: #A80036; stroke-width: 1.5;"/><text fill="#000000" font-family="sans-serif" font-size="14" lengthAdjust="spacingAndGlyphs" textLength="81" x="683" y="82.9951">Nederlanse</text><text fill="#000000" font-family="sans-serif" font-size="14" lengthAdjust="spacingAndGlyphs" textLength="75" x="686" y="99.292">Wiktipedia</text><path d="M708.5,38 C708.5,28 726.5,28 726.5,28 C726.5,28 744.5,28 744.5,38 L744.5,60 C744.5,70 726.5,70 726.5,70 C726.5,70 708.5,70 708.5,60 L708.5,38 " fill="#FEFECE" filter="url(#f1)" style="stroke: #A80036; stroke-width: 1.5;"/><path d="M708.5,38 C708.5,48 726.5,48 726.5,48 C726.5,48 744.5,48 744.5,38 " fill="none" style="stroke: #A80036; stroke-width: 1.5;"/><text fill="#000000" font-family="sans-serif" font-size="14" lengthAdjust="spacingAndGlyphs" textLength="81" x="683" y="413.917">Nederlanse</text><text fill="#000000" font-family="sans-serif" font-size="14" lengthAdjust="spacingAndGlyphs" textLength="75" x="686" y="430.2139">Wiktipedia</text><path d="M708.5,443.5156 C708.5,433.5156 726.5,433.5156 726.5,433.5156 C726.5,433.5156 744.5,433.5156 744.5,443.5156 L744.5,465.5156 C744.5,475.5156 726.5,475.5156 726.5,475.5156 C726.5,475.5156 708.5,475.5156 708.5,465.5156 L708.5,443.5156 " fill="#FEFECE" filter="url(#f1)" style="stroke: #A80036; stroke-width: 1.5;"/><path d="M708.5,443.5156 C708.5,453.5156 726.5,453.5156 726.5,453.5156 C726.5,453.5156 744.5,453.5156 744.5,443.5156 " fill="none" style="stroke: #A80036; stroke-width: 1.5;"/><rect fill="#FEFECE" filter="url(#f1)" height="46.5938" style="stroke: #A80036; stroke-width: 1.5;" width="103" x="780" y="51"/><text fill="#000000" font-family="sans-serif" font-size="14" lengthAdjust="spacingAndGlyphs" textLength="89" x="787" y="70.9951">Downloaded</text><text fill="#000000" font-family="sans-serif" font-size="14" lengthAdjust="spacingAndGlyphs" textLength="30" x="816.5" y="87.292">XML</text><rect fill="#FEFECE" filter="url(#f1)" height="46.5938" style="stroke: #A80036; stroke-width: 1.5;" width="103" x="780" y="400.9219"/><text fill="#000000" font-family="sans-serif" font-size="14" lengthAdjust="spacingAndGlyphs" textLength="89" x="787" y="420.917">Downloaded</text><text fill="#000000" font-family="sans-serif" font-size="14" lengthAdjust="spacingAndGlyphs" textLength="30" x="816.5" y="437.2139">XML</text><text fill="#000000" font-family="sans-serif" font-size="14" lengthAdjust="spacingAndGlyphs" textLength="90" x="903.5" y="82.9951">Nederlandse</text><text fill="#000000" font-family="sans-serif" font-size="14" lengthAdjust="spacingAndGlyphs" textLength="103" x="897" y="99.292">OpenThesarus</text><path d="M933.5,38 C933.5,28 951.5,28 951.5,28 C951.5,28 969.5,28 969.5,38 L969.5,60 C969.5,70 951.5,70 951.5,70 C951.5,70 933.5,70 933.5,60 L933.5,38 " fill="#FEFECE" filter="url(#f1)" style="stroke: #A80036; stroke-width: 1.5;"/><path d="M933.5,38 C933.5,48 951.5,48 951.5,48 C951.5,48 969.5,48 969.5,38 " fill="none" style="stroke: #A80036; stroke-width: 1.5;"/><text fill="#000000" font-family="sans-serif" font-size="14" lengthAdjust="spacingAndGlyphs" textLength="90" x="903.5" y="413.917">Nederlandse</text><text fill="#000000" font-family="sans-serif" font-size="14" lengthAdjust="spacingAndGlyphs" textLength="103" x="897" y="430.2139">OpenThesarus</text><path d="M933.5,443.5156 C933.5,433.5156 951.5,433.5156 951.5,433.5156 C951.5,433.5156 969.5,433.5156 969.5,443.5156 L969.5,465.5156 C969.5,475.5156 951.5,475.5156 951.5,475.5156 C951.5,475.5156 933.5,475.5156 933.5,465.5156 L933.5,443.5156 " fill="#FEFECE" filter="url(#f1)" style="stroke: #A80036; stroke-width: 1.5;"/><path d="M933.5,443.5156 C933.5,453.5156 951.5,453.5156 951.5,453.5156 C951.5,453.5156 969.5,453.5156 969.5,443.5156 " fill="none" style="stroke: #A80036; stroke-width: 1.5;"/><rect fill="#FEFECE" filter="url(#f1)" height="30.2969" style="stroke: #A80036; stroke-width: 1.5;" width="44" x="1016" y="67.2969"/><text fill="#000000" font-family="sans-serif" font-size="14" lengthAdjust="spacingAndGlyphs" textLength="30" x="1023" y="87.292">osm</text><rect fill="#FEFECE" filter="url(#f1)" height="30.2969" style="stroke: #A80036; stroke-width: 1.5;" width="44" x="1016" y="400.9219"/><text fill="#000000" font-family="sans-serif" font-size="14" lengthAdjust="spacingAndGlyphs" textLength="30" x="1023" y="420.917">osm</text><polygon fill="#FBFB77" filter="url(#f1)" points="224,117.5938,224,157.5938,511,157.5938,511,127.5938,501,117.5938,224,117.5938" style="stroke: #A80036; stroke-width: 1.0;"/><line style="stroke: #A80036; stroke-width: 1.0;" x1="501" x2="501" y1="117.5938" y2="127.5938"/><line style="stroke: #A80036; stroke-width: 1.0;" x1="511" x2="501" y1="127.5938" y2="127.5938"/><text fill="#000000" font-family="sans-serif" font-size="13" lengthAdjust="spacingAndGlyphs" textLength="266" x="230" y="134.6606">https://zoek.officielebekendmakingen.nl/</text><text fill="#000000" font-family="sans-serif" font-size="13" lengthAdjust="spacingAndGlyphs" textLength="111" x="230" y="149.7935">stcrt-2015-35790</text><polygon fill="#FBFB77" filter="url(#f1)" points="429,171.8594,429,211.8594,629,211.8594,629,181.8594,619,171.8594,429,171.8594" style="stroke: #A80036; stroke-width: 1.0;"/><line style="stroke: #A80036; stroke-width: 1.0;" x1="619" x2="619" y1="171.8594" y2="181.8594"/><line style="stroke: #A80036; stroke-width: 1.0;" x1="629" x2="619" y1="181.8594" y2="181.8594"/><text fill="#000000" font-family="sans-serif" font-size="13" lengthAdjust="spacingAndGlyphs" textLength="179" x="435" y="188.9263">http://wordpress.let.vupr.nl/</text><text fill="#000000" font-family="sans-serif" font-size="13" lengthAdjust="spacingAndGlyphs" textLength="35" x="435" y="204.0591">odwn</text><polygon fill="#FBFB77" filter="url(#f1)" points="522,226.125,522,266.125,733,266.125,733,236.125,723,226.125,522,226.125" style="stroke: #A80036; stroke-width: 1.0;"/><line style="stroke: #A80036; stroke-width: 1.0;" x1="723" x2="723" y1="226.125" y2="236.125"/><line style="stroke: #A80036; stroke-width: 1.0;" x1="733" x2="723" y1="236.125" y2="236.125"/><text fill="#000000" font-family="sans-serif" font-size="13" lengthAdjust="spacingAndGlyphs" textLength="190" x="528" y="243.1919">https://dumps.wikimedia.org/</text><text fill="#000000" font-family="sans-serif" font-size="13" lengthAdjust="spacingAndGlyphs" textLength="122" x="528" y="258.3247">nlwiktionary/latest</text><polygon fill="#A80036" points="821.5,292.3906,831.5,296.3906,821.5,300.3906,825.5,296.3906" style="stroke: #A80036; stroke-width: 1.0;"/><line style="stroke: #A80036; stroke-width: 1.0;" x1="629.5" x2="827.5" y1="296.3906" y2="296.3906"/><text fill="#000000" font-family="sans-serif" font-size="13" lengthAdjust="spacingAndGlyphs" textLength="81" x="636.5" y="291.4575">To boundary</text><polygon fill="#A80036" points="821.5,321.5234,831.5,325.5234,821.5,329.5234,825.5,325.5234" style="stroke: #A80036; stroke-width: 1.0;"/><line style="stroke: #A80036; stroke-width: 1.0;" x1="726.5" x2="827.5" y1="325.5234" y2="325.5234"/><text fill="#000000" font-family="sans-serif" font-size="13" lengthAdjust="spacingAndGlyphs" textLength="65" x="733.5" y="320.5903">To control</text><polygon fill="#A80036" points="821.5,350.6563,831.5,354.6563,821.5,358.6563,825.5,354.6563" style="stroke: #A80036; stroke-width: 1.0;"/><line style="stroke: #A80036; stroke-width: 1.0;" x1="370" x2="827.5" y1="354.6563" y2="354.6563"/><text fill="#000000" font-family="sans-serif" font-size="13" lengthAdjust="spacingAndGlyphs" textLength="58" x="377" y="349.7231">To entity</text><polygon fill="#A80036" points="844.5,379.7891,834.5,383.7891,844.5,387.7891,840.5,383.7891" style="stroke: #A80036; stroke-width: 1.0;"/><line style="stroke: #A80036; stroke-width: 1.0;" x1="838.5" x2="1039" y1="383.7891" y2="383.7891"/><text fill="#000000" font-family="sans-serif" font-size="13" lengthAdjust="spacingAndGlyphs" textLength="80" x="850.5" y="378.856">To database</text></g></svg>